<svg width="150" height="150" viewBox="0 0 150 150" fill="none" xmlns="http://www.w3.org/2000/svg">
<path d="M148 75C148 115.317 115.317 148 75 148C34.6832 148 2 115.317 2 75C2 34.6832 34.6832 2 75 2C115.317 2 148 34.6832 148 75Z" stroke="#0082F4" stroke-width="4"/>
<path d="M89.4071 75.2527C94.5996 71.2908 98.8084 66.1848 101.706 60.3314C104.604 54.4781 106.113 48.0353 106.115 41.5039C106.115 41.2863 106.028 41.0777 105.875 40.9239C105.721 40.77 105.512 40.6836 105.294 40.6836C95.8521 40.6816 86.68 43.8356 79.2359 49.6444C76.3621 51.8826 73.7848 54.4773 71.5659 57.366C70.7856 57.8448 69.8671 58.0476 68.9577 57.9418C68.0483 57.836 67.2009 57.4279 66.5512 56.7828C65.481 55.7125 64.0296 55.1109 62.516 55.1102C61.0024 55.1094 59.5505 55.7095 58.4791 56.7787L50.354 64.7848C50.2767 64.8611 50.2153 64.952 50.1734 65.0522C50.1314 65.1525 50.1099 65.2601 50.1099 65.3687C50.1099 65.4774 50.1314 65.5849 50.1734 65.6852C50.2153 65.7854 50.2767 65.8763 50.354 65.9526L55.055 70.5956C56.2415 71.761 57.7588 72.5319 59.3997 72.8031C61.0406 73.0742 62.7252 72.8324 64.2236 72.1106C64.2209 72.1207 64.2179 72.1305 64.2151 72.1405C64.1775 72.2798 64.1773 72.4265 64.2145 72.5659C64.2517 72.7053 64.325 72.8324 64.427 72.9345L66.793 75.3008L61.0046 76.5276C60.8601 76.5582 60.7265 76.6272 60.618 76.7274C60.5095 76.8276 60.4301 76.9552 60.3881 77.0968C60.3461 77.2383 60.3431 77.3886 60.3794 77.5318C60.4157 77.6749 60.49 77.8056 60.5944 77.9101L63.5065 80.8222C62.8493 80.4289 62.1341 80.1419 61.3874 79.9716C61.1498 79.9179 60.9116 79.8759 60.6815 79.8472C60.3936 79.8106 60.1037 79.7912 59.8135 79.7891C58.8534 79.7809 57.9013 79.9648 57.0133 80.3299C56.1253 80.695 55.3193 81.234 54.6426 81.9151C53.9439 82.6023 53.3892 83.422 53.0109 84.3261C52.6327 85.2303 52.4385 86.2008 52.4398 87.1808C52.4397 87.3948 52.5233 87.6004 52.6727 87.7536C52.8221 87.9069 53.0254 87.9957 53.2393 88.0011L53.858 88.0169C52.6607 89.6742 52.1579 91.7335 52.4565 93.7562C52.4936 93.9422 52.5943 94.1095 52.7412 94.2295C52.8881 94.3495 53.0721 94.4148 53.2618 94.4141H55.5029C55.7204 94.4141 55.9291 94.3276 56.0829 94.1738C56.2367 94.02 56.3232 93.8113 56.3232 93.5938C56.3232 93.3762 56.2367 93.1675 56.0829 93.0137C55.9291 92.8599 55.7204 92.7734 55.5029 92.7734H54.0085C53.9853 91.6797 54.2254 89.6073 56.2117 87.8544C56.3353 87.7455 56.4231 87.6019 56.4638 87.4423C56.5044 87.2827 56.496 87.1146 56.4397 86.9598C56.3834 86.8051 56.2817 86.6709 56.1479 86.5748C56.0141 86.4787 55.8545 86.4252 55.6899 86.4212L54.1368 86.3821C54.3123 85.1285 54.8965 83.9679 55.7989 83.0801C56.3178 82.5579 56.9347 82.1433 57.6143 81.8601C58.2938 81.5768 59.0226 81.4306 59.7588 81.4297H59.8016C59.9321 81.4306 60.0631 81.4375 60.194 81.4475C59.693 81.7428 59.2668 82.1496 58.9486 82.6363C58.6303 83.123 58.4285 83.6765 58.3589 84.2538L57.8885 88.0546C57.8742 88.1699 57.8846 88.287 57.919 88.398C57.9533 88.509 58.0109 88.6115 58.0879 88.6986C58.1649 88.7857 58.2595 88.8554 58.3654 88.9032C58.4714 88.9509 58.5863 88.9757 58.7025 88.9757C58.7362 88.9756 58.7698 88.9736 58.8033 88.9695L62.604 88.4989C63.1818 88.4278 63.7354 88.2247 64.2221 87.9055C64.7088 87.5863 65.1157 87.1594 65.4111 86.6579C65.4229 86.8057 65.431 86.9547 65.4312 87.1048C65.4332 87.8503 65.2873 88.5889 65.002 89.2776C64.7167 89.9664 64.2977 90.5918 63.7691 91.1176C63.6913 91.1934 63.6292 91.2839 63.5866 91.3839C63.544 91.4838 63.5217 91.5913 63.5209 91.6999C63.5202 91.8086 63.5411 91.9163 63.5823 92.0168C63.6235 92.1174 63.6843 92.2087 63.7612 92.2855C63.838 92.3624 63.9293 92.4232 64.0298 92.4644C64.1304 92.5057 64.2381 92.5266 64.3468 92.5258C64.4554 92.5251 64.5628 92.5028 64.6628 92.4602C64.7628 92.4176 64.8533 92.3556 64.9291 92.2777C65.7172 91.4902 66.3149 90.533 66.6763 89.4791C67.0378 88.4253 67.1535 87.3027 67.0146 86.1973C66.9872 85.9685 66.9473 85.736 66.8962 85.5057C66.7269 84.7473 66.4374 84.0209 66.0385 83.3539L68.8887 86.2038C68.9915 86.3066 69.1197 86.3802 69.2602 86.4171C69.4007 86.454 69.5485 86.453 69.6885 86.414C69.8285 86.3751 69.9557 86.2997 70.0569 86.1955C70.1582 86.0913 70.23 85.9621 70.2649 85.821L71.6625 80.1703L73.7901 82.298C73.8916 82.3995 74.018 82.4726 74.1566 82.5099C74.2953 82.5473 74.4412 82.5477 74.58 82.5111C74.6291 82.4974 74.6777 82.4837 74.7267 82.47C73.9767 83.975 73.715 85.6765 73.9781 87.3373C74.2412 88.9981 75.016 90.5354 76.1944 91.7349L80.837 96.4648C80.9881 96.629 81.1978 96.7272 81.4206 96.7383C81.6436 96.7273 81.8533 96.6291 82.0044 96.4648L90.0066 88.3301C91.076 87.2568 91.6765 85.8034 91.6765 84.2883C91.6765 82.7731 91.076 81.3197 90.0066 80.2464C89.3655 79.5993 88.9584 78.7569 88.8498 77.8524C88.7412 76.948 88.9373 76.0331 89.4071 75.2527ZM104.466 42.3326C104.416 44.8275 104.137 47.3125 103.633 49.7564C100.859 48.2193 98.5691 45.939 97.0202 43.1719C99.471 42.6635 101.963 42.3826 104.466 42.3326ZM56.2074 69.4283L52.0979 65.3697L59.6342 57.943C60.3975 57.1798 61.4327 56.751 62.5122 56.751C63.5916 56.751 64.6268 57.1798 65.3901 57.943C65.9859 58.5354 66.7048 58.9896 67.4957 59.2732C68.2867 59.5569 69.1303 59.6631 69.9669 59.5844C67.8618 62.7076 66.181 66.0965 64.9684 69.6624C63.7492 70.7385 62.1675 71.3127 60.5419 71.2692C58.9162 71.2258 57.3674 70.568 56.2074 69.4283ZM64.2191 85.3119C64.1035 85.7218 63.8693 86.0885 63.546 86.3658C63.2226 86.6431 62.8246 86.8186 62.4018 86.8705L59.6458 87.2123L59.9876 84.457C60.043 84.0259 60.2259 83.6211 60.5128 83.2947C60.7998 82.9683 61.1777 82.7351 61.5982 82.6249C61.967 82.5308 62.354 82.5355 62.7204 82.6385C63.0868 82.7414 63.4196 82.9391 63.6854 83.2115C63.9511 83.484 64.1404 83.8216 64.2342 84.1905C64.328 84.5593 64.3231 84.9464 64.2198 85.3127L64.2191 85.3119ZM69.0211 84.0162L62.8237 77.819L68.1767 76.6842L70.3073 78.8145L69.0211 84.0162ZM74.6141 80.8018L65.9247 72.1124C66.0705 71.5965 66.2269 71.0839 66.394 70.5746C66.3989 70.5696 66.404 70.5653 66.4089 70.5609L66.4011 70.5531C68.3765 64.5722 71.6965 59.1238 76.1062 54.6264C80.516 50.1289 85.898 46.7022 91.8387 44.6095C92.9986 44.2027 94.1723 43.8505 95.3599 43.5529C97.1305 46.9151 99.8839 49.6577 103.253 51.4151C99.744 65.4175 88.9547 76.83 74.6141 80.8018ZM88.8425 87.1592L81.42 94.6916L77.3613 90.5822C76.2048 89.4052 75.5452 87.8286 75.5189 86.1787C75.4927 84.5288 76.1018 82.932 77.2202 81.7188C80.7501 80.535 84.1075 78.8889 87.2051 76.8234C87.1266 77.6598 87.233 78.5033 87.5167 79.294C87.8004 80.0847 88.2544 80.8035 88.8467 81.3993C89.6093 82.164 90.0372 83.2002 90.0364 84.2802C90.0356 85.3602 89.6062 86.3958 88.8425 87.1595V87.1592Z" fill="#0082F4"/>
<path d="M61.0832 92.6201C60.6482 92.7231 60.2026 92.7746 59.7556 92.7735H58.4634C58.2458 92.7735 58.0372 92.8599 57.8833 93.0138C57.7295 93.1676 57.6431 93.3762 57.6431 93.5938C57.6431 93.8114 57.7295 94.02 57.8833 94.1739C58.0372 94.3277 58.2458 94.4141 58.4634 94.4141H59.7556C60.3311 94.4152 60.9047 94.3486 61.4646 94.2156C61.6762 94.1649 61.859 94.0323 61.9728 93.8468C62.0865 93.6614 62.122 93.4384 62.0713 93.2268C62.0206 93.0152 61.888 92.8324 61.7026 92.7187C61.5171 92.6049 61.2941 92.5694 61.0825 92.6201H61.0832Z" fill="#0082F4"/>
<path d="M94.0942 75.6719C94.2852 75.6721 94.4702 75.6054 94.617 75.4834C95.2016 74.9994 95.7813 74.4924 96.3397 73.9767C96.4201 73.904 96.4853 73.8161 96.5315 73.718C96.5777 73.6199 96.6041 73.5137 96.609 73.4054C96.6139 73.2971 96.5972 73.1889 96.5601 73.087C96.5229 72.9852 96.4659 72.8917 96.3924 72.812C96.3189 72.7323 96.2303 72.668 96.1317 72.6228C96.0332 72.5775 95.9267 72.5523 95.8183 72.5485C95.71 72.5447 95.602 72.5624 95.5005 72.6006C95.399 72.6388 95.3061 72.6967 95.2272 72.771C94.6898 73.2669 94.1321 73.7543 93.57 74.2202C93.44 74.3279 93.3464 74.4731 93.3019 74.636C93.2574 74.7988 93.2643 74.9715 93.3216 75.1303C93.3789 75.2891 93.4837 75.4264 93.6219 75.5234C93.7601 75.6204 93.9248 75.6724 94.0937 75.6723L94.0942 75.6719Z" fill="#0082F4"/>
<path d="M107.642 54.0656C107.539 54.0344 107.431 54.0239 107.324 54.0345C107.217 54.0452 107.112 54.0769 107.018 54.1277C106.923 54.1786 106.839 54.2477 106.77 54.331C106.702 54.4144 106.651 54.5103 106.62 54.6135C105.929 56.896 105.039 59.1133 103.959 61.2397C103.566 62.0139 103.141 62.7864 102.698 63.5355C102.153 64.4557 101.565 65.3664 100.948 66.2425C99.9701 67.6311 98.9068 68.9578 97.7645 70.2148C97.6182 70.3759 97.5418 70.5884 97.5522 70.8057C97.5626 71.0231 97.6589 71.2273 97.8199 71.3737C97.9809 71.52 98.1935 71.5964 98.4108 71.586C98.6281 71.5756 98.8324 71.4793 98.9787 71.3183C100.167 70.0107 101.272 68.6308 102.289 67.1864C102.93 66.2756 103.543 65.3284 104.109 64.3709C104.571 63.5916 105.012 62.7881 105.421 61.9826C106.545 59.7702 107.471 57.4631 108.19 55.0882C108.253 54.88 108.23 54.6553 108.128 54.4636C108.025 54.2718 107.85 54.1287 107.642 54.0656Z" fill="#0082F4"/>
<path d="M42.8696 74.2494C42.9774 74.2496 43.0841 74.2284 43.1836 74.1872C43.2831 74.146 43.3735 74.0855 43.4496 74.0092L44.0778 73.381C44.2282 73.2265 44.3117 73.019 44.3103 72.8033C44.3088 72.5877 44.2225 72.3813 44.0701 72.2288C43.9176 72.0763 43.7112 71.99 43.4956 71.9885C43.28 71.9871 43.0724 72.0706 42.9179 72.2209L42.289 72.8492C42.1743 72.9639 42.0962 73.11 42.0646 73.2691C42.0329 73.4282 42.0492 73.5932 42.1113 73.743C42.1733 73.8929 42.2784 74.021 42.4133 74.1111C42.5482 74.2013 42.7067 74.2494 42.869 74.2494H42.8696Z" fill="#0082F4"/>
<path d="M45.8601 71.599L48.667 68.7922C48.7432 68.716 48.8037 68.6256 48.8449 68.526C48.8861 68.4265 48.9073 68.3198 48.9074 68.2121C48.9074 68.1044 48.8861 67.9977 48.8449 67.8982C48.8037 67.7986 48.7433 67.7082 48.6671 67.632C48.5909 67.5558 48.5005 67.4954 48.401 67.4542C48.3015 67.413 48.1948 67.3917 48.0871 67.3917C47.9793 67.3917 47.8727 67.4129 47.7731 67.4541C47.6736 67.4954 47.5832 67.5558 47.507 67.632L44.7002 70.4388C44.623 70.5147 44.5616 70.6052 44.5195 70.705C44.4774 70.8048 44.4555 70.9119 44.4551 71.0202C44.4546 71.1285 44.4756 71.2358 44.5168 71.3359C44.5581 71.436 44.6187 71.527 44.6953 71.6036C44.7718 71.6802 44.8628 71.7408 44.9629 71.7821C45.063 71.8233 45.1703 71.8444 45.2786 71.8439C45.3869 71.8435 45.494 71.8216 45.5938 71.7796C45.6936 71.7376 45.7841 71.6762 45.8601 71.599Z" fill="#0082F4"/>
<path d="M43.5255 77.0754C43.6794 77.2292 43.888 77.3157 44.1056 77.3157C44.3231 77.3157 44.5318 77.2292 44.6856 77.0754L47.985 73.7759C48.0612 73.6997 48.1216 73.6092 48.1628 73.5097C48.2041 73.4102 48.2253 73.3035 48.2253 73.1958C48.2253 73.088 48.204 72.9814 48.1628 72.8818C48.1216 72.7823 48.0611 72.6919 47.985 72.6157C47.9088 72.5396 47.8183 72.4791 47.7188 72.4379C47.6193 72.3967 47.5126 72.3755 47.4049 72.3755C47.2972 72.3755 47.1905 72.3967 47.091 72.438C46.9914 72.4792 46.901 72.5396 46.8248 72.6158L43.5254 75.9152C43.4492 75.9914 43.3888 76.0819 43.3476 76.1814C43.3064 76.2809 43.2851 76.3876 43.2852 76.4953C43.2852 76.6031 43.3064 76.7098 43.3476 76.8093C43.3889 76.9088 43.4493 76.9993 43.5255 77.0754Z" fill="#0082F4"/>
<path d="M49.0179 72.4024C49.1256 72.4025 49.2323 72.3813 49.3318 72.3401C49.4314 72.2989 49.5218 72.2384 49.5979 72.1622L50.8177 70.9425C50.8949 70.8666 50.9563 70.7761 50.9983 70.6763C51.0404 70.5765 51.0623 70.4694 51.0627 70.3611C51.0632 70.2528 51.0422 70.1455 51.001 70.0454C50.9597 69.9452 50.8991 69.8543 50.8225 69.7777C50.746 69.7011 50.655 69.6404 50.5549 69.5992C50.4548 69.5579 50.3475 69.5369 50.2392 69.5374C50.1309 69.5378 50.0238 69.5597 49.924 69.6017C49.8242 69.6437 49.7337 69.7051 49.6577 69.7823L48.4379 71.0021C48.3232 71.1168 48.2451 71.263 48.2135 71.4221C48.1819 71.5812 48.1981 71.7461 48.2602 71.896C48.3223 72.0458 48.4274 72.1739 48.5622 72.2641C48.6971 72.3542 48.8557 72.4023 49.0179 72.4024Z" fill="#0082F4"/>
<path d="M45.6603 78.0827L42.0153 81.7273C41.8636 81.8816 41.7789 82.0895 41.7798 82.3059C41.7807 82.5223 41.867 82.7296 42.02 82.8827C42.1731 83.0357 42.3804 83.122 42.5968 83.1229C42.8132 83.1238 43.0211 83.0391 43.1754 82.8874L46.8201 79.2427C46.8972 79.1668 46.9586 79.0763 47.0007 78.9765C47.0427 78.8767 47.0646 78.7696 47.0651 78.6613C47.0655 78.553 47.0445 78.4457 47.0033 78.3456C46.962 78.2455 46.9014 78.1545 46.8248 78.0779C46.7482 78.0013 46.6573 77.9407 46.5571 77.8994C46.457 77.8582 46.3497 77.8372 46.2414 77.8377C46.1331 77.8381 46.026 77.86 45.9262 77.902C45.8264 77.9441 45.7359 78.0055 45.66 78.0827H45.6603Z" fill="#0082F4"/>
<path d="M52.9688 71.9338C52.815 71.78 52.6064 71.6936 52.3888 71.6936C52.1713 71.6936 51.9627 71.78 51.8089 71.9338L47.539 76.2031C47.4618 76.279 47.4004 76.3695 47.3584 76.4693C47.3163 76.5691 47.2944 76.6762 47.294 76.7845C47.2935 76.8928 47.3145 77.0001 47.3557 77.1002C47.3969 77.2003 47.4576 77.2913 47.5341 77.3679C47.6107 77.4445 47.7017 77.5051 47.8018 77.5464C47.9019 77.5876 48.0092 77.6087 48.1175 77.6082C48.2258 77.6078 48.3329 77.5859 48.4327 77.5439C48.5325 77.5019 48.623 77.4405 48.6989 77.3633L52.9688 73.0933C53.1225 72.9395 53.2088 72.731 53.2088 72.5135C53.2088 72.2961 53.1225 72.0876 52.9688 71.9338Z" fill="#0082F4"/>
<path d="M69.1074 98.4098L68.4785 99.0379C68.3247 99.1917 68.2383 99.4004 68.2383 99.6179C68.2383 99.8355 68.3247 100.044 68.4786 100.198C68.6324 100.352 68.8411 100.438 69.0587 100.438C69.2762 100.438 69.4849 100.352 69.6387 100.198L70.2668 99.569C70.4186 99.4147 70.5032 99.2067 70.5023 98.9903C70.5014 98.7739 70.415 98.5667 70.262 98.4137C70.1089 98.2607 69.9016 98.1743 69.6852 98.1735C69.4688 98.1726 69.2608 98.2573 69.1066 98.4091L69.1074 98.4098Z" fill="#0082F4"/>
<path d="M73.6957 93.8208L70.8888 96.6276C70.811 96.7034 70.7489 96.7939 70.7063 96.8939C70.6637 96.9938 70.6414 97.1013 70.6406 97.2099C70.6399 97.3186 70.6608 97.4263 70.702 97.5268C70.7432 97.6274 70.804 97.7187 70.8809 97.7955C70.9577 97.8724 71.049 97.9332 71.1495 97.9744C71.2501 98.0157 71.3578 98.0365 71.4665 98.0358C71.5751 98.0351 71.6825 98.0128 71.7825 97.9702C71.8825 97.9276 71.973 97.8655 72.0488 97.7877L74.8556 94.9808C75.006 94.8263 75.0895 94.6188 75.0881 94.4032C75.0866 94.1875 75.0003 93.9812 74.8478 93.8287C74.6954 93.6762 74.489 93.5899 74.2734 93.5884C74.0578 93.5869 73.8502 93.6704 73.6957 93.8208Z" fill="#0082F4"/>
<path d="M69.7142 103.264C69.8681 103.418 70.0767 103.504 70.2943 103.504C70.5118 103.504 70.7205 103.418 70.8743 103.264L74.1739 99.9649C74.2517 99.8891 74.3138 99.7986 74.3564 99.6986C74.399 99.5987 74.4213 99.4912 74.4221 99.3826C74.4228 99.2739 74.402 99.1662 74.3607 99.0657C74.3195 98.9651 74.2587 98.8738 74.1819 98.7969C74.105 98.7201 74.0137 98.6593 73.9132 98.618C73.8126 98.5768 73.7049 98.5559 73.5963 98.5567C73.4876 98.5574 73.3802 98.5797 73.2802 98.6223C73.1802 98.6649 73.0897 98.7269 73.0139 98.8048L69.7144 102.104C69.5606 102.258 69.4741 102.467 69.4741 102.684C69.4741 102.902 69.5605 103.11 69.7142 103.264Z" fill="#0082F4"/>
<path d="M74.627 98.3515C74.7032 98.4277 74.7936 98.4882 74.8932 98.5294C74.9927 98.5706 75.0994 98.5919 75.2071 98.5919C75.3149 98.5919 75.4215 98.5706 75.5211 98.5294C75.6206 98.4882 75.7111 98.4277 75.7872 98.3515L77.0069 97.1317C77.1607 96.9779 77.2471 96.7692 77.2471 96.5516C77.2471 96.334 77.1606 96.1254 77.0068 95.9715C76.8529 95.8177 76.6442 95.7313 76.4266 95.7313C76.2091 95.7313 76.0004 95.8178 75.8466 95.9717L74.627 97.1913C74.5508 97.2675 74.4904 97.358 74.4492 97.4575C74.4079 97.557 74.3867 97.6637 74.3867 97.7714C74.3867 97.8792 74.4079 97.9859 74.4492 98.0854C74.4904 98.1849 74.5508 98.2754 74.627 98.3515Z" fill="#0082F4"/>
<path d="M71.8487 104.271L68.2041 107.916C68.1269 107.992 68.0655 108.082 68.0234 108.182C67.9813 108.282 67.9594 108.389 67.959 108.497C67.9585 108.606 67.9795 108.713 68.0208 108.813C68.062 108.913 68.1226 109.004 68.1992 109.081C68.2757 109.157 68.3667 109.218 68.4668 109.259C68.567 109.301 68.6743 109.322 68.7825 109.321C68.8908 109.321 68.998 109.299 69.0977 109.257C69.1975 109.215 69.288 109.153 69.364 109.076L73.0088 105.432C73.086 105.356 73.1473 105.265 73.1894 105.165C73.2314 105.066 73.2533 104.958 73.2538 104.85C73.2542 104.742 73.2332 104.635 73.192 104.534C73.1507 104.434 73.0901 104.343 73.0135 104.267C72.9369 104.19 72.846 104.13 72.7458 104.088C72.6457 104.047 72.5384 104.026 72.4301 104.026C72.3218 104.027 72.2147 104.049 72.1149 104.091C72.0151 104.133 71.9246 104.194 71.8487 104.271Z" fill="#0082F4"/>
<path d="M77.9974 98.1225L73.7274 102.392C73.6502 102.468 73.5888 102.559 73.5468 102.659C73.5047 102.759 73.4829 102.866 73.4824 102.974C73.482 103.082 73.503 103.19 73.5442 103.29C73.5855 103.39 73.6461 103.481 73.7227 103.557C73.7993 103.634 73.8902 103.695 73.9904 103.736C74.0905 103.777 74.1978 103.798 74.3061 103.798C74.4144 103.797 74.5215 103.775 74.6213 103.733C74.7211 103.691 74.8115 103.63 74.8875 103.553L79.1574 99.2827C79.2346 99.2068 79.296 99.1163 79.338 99.0165C79.3801 98.9167 79.402 98.8096 79.4024 98.7013C79.4029 98.593 79.3819 98.4857 79.3407 98.3856C79.2994 98.2855 79.2388 98.1945 79.1622 98.1179C79.0857 98.0413 78.9947 97.9807 78.8946 97.9394C78.7945 97.8982 78.6872 97.8771 78.5789 97.8776C78.4706 97.878 78.3635 97.8999 78.2637 97.9419C78.1639 97.9839 78.0734 98.0453 77.9974 98.1225Z" fill="#0082F4"/>
<path d="M101.226 88.1674C100.554 87.9401 99.9427 87.5602 99.4414 87.0574C98.94 86.5545 98.562 85.9423 98.3368 85.2689C98.2825 85.1055 98.178 84.9633 98.0383 84.8626C97.8986 84.7619 97.7307 84.7076 97.5585 84.7076C97.3863 84.7076 97.2184 84.7619 97.0787 84.8626C96.939 84.9633 96.8346 85.1055 96.7802 85.2689C96.555 85.9423 96.177 86.5545 95.6756 87.0574C95.1743 87.5602 94.5633 87.9401 93.8906 88.1674C93.7275 88.2219 93.5856 88.3264 93.4851 88.466C93.3846 88.6056 93.3306 88.7733 93.3306 88.9453C93.3306 89.1173 93.3846 89.285 93.4851 89.4246C93.5856 89.5642 93.7275 89.6686 93.8906 89.7232C94.5633 89.9504 95.1743 90.3303 95.6756 90.8332C96.177 91.3361 96.555 91.9482 96.7802 92.6217C96.8346 92.7851 96.939 92.9272 97.0787 93.028C97.2184 93.1287 97.3863 93.1829 97.5585 93.1829C97.7307 93.1829 97.8986 93.1287 98.0383 93.028C98.178 92.9272 98.2825 92.7851 98.3368 92.6217C98.562 91.9482 98.94 91.3361 99.4414 90.8332C99.9427 90.3303 100.554 89.9504 101.226 89.7232C101.39 89.6686 101.531 89.5642 101.632 89.4246C101.732 89.285 101.786 89.1173 101.786 88.9453C101.786 88.7733 101.732 88.6056 101.632 88.466C101.531 88.3264 101.39 88.2219 101.226 88.1674ZM97.5585 90.5437C97.1277 89.9189 96.5872 89.3773 95.9633 88.9453C96.5872 88.5133 97.1277 87.9717 97.5585 87.3469C97.9893 87.9717 98.5298 88.5133 99.1537 88.9453C98.5298 89.3773 97.9893 89.9189 97.5585 90.5437Z" fill="#0082F4"/>
<path d="M43.0312 56.774C43.704 57.0012 44.315 57.3811 44.8163 57.884C45.3176 58.3869 45.6956 58.999 45.9208 59.6724C45.9752 59.8359 46.0796 59.978 46.2193 60.0788C46.359 60.1795 46.5269 60.2337 46.6991 60.2337C46.8714 60.2337 47.0392 60.1795 47.1789 60.0788C47.3186 59.978 47.4231 59.8359 47.4775 59.6724C47.7026 58.999 48.0807 58.3869 48.582 57.884C49.0833 57.3811 49.6943 57.0012 50.367 56.774C50.5301 56.7194 50.672 56.6149 50.7725 56.4753C50.873 56.3357 50.9271 56.1681 50.9271 55.9961C50.9271 55.8241 50.873 55.6564 50.7725 55.5168C50.672 55.3772 50.5301 55.2727 50.367 55.2181C49.6943 54.9909 49.0833 54.611 48.582 54.1081C48.0807 53.6053 47.7026 52.9931 47.4775 52.3197C47.4231 52.1563 47.3186 52.0141 47.1789 51.9134C47.0392 51.8126 46.8714 51.7584 46.6991 51.7584C46.5269 51.7584 46.359 51.8126 46.2193 51.9134C46.0796 52.0141 45.9752 52.1563 45.9208 52.3197C45.6956 52.9931 45.3176 53.6053 44.8163 54.1081C44.315 54.611 43.704 54.9909 43.0312 55.2181C42.8681 55.2727 42.7263 55.3772 42.6258 55.5168C42.5253 55.6564 42.4712 55.8241 42.4712 55.9961C42.4712 56.1681 42.5253 56.3357 42.6258 56.4753C42.7263 56.6149 42.8681 56.7194 43.0312 56.774ZM46.6991 54.3977C47.1299 55.0225 47.6704 55.564 48.2944 55.9961C47.6704 56.4281 47.1299 56.9696 46.6991 57.5944C46.2683 56.9696 45.7279 56.4281 45.1039 55.9961C45.7279 55.564 46.2683 55.0225 46.6991 54.3977Z" fill="#0082F4"/>
<path d="M57.3686 48.8867C58.198 48.8867 58.8704 48.2134 58.8704 47.3828C58.8704 46.5522 58.198 45.8789 57.3686 45.8789C56.5391 45.8789 55.8667 46.5522 55.8667 47.3828C55.8667 48.2134 56.5391 48.8867 57.3686 48.8867Z" fill="#0082F4"/>
<path d="M94.9662 102.344C95.7957 102.344 96.4681 101.67 96.4681 100.84C96.4681 100.009 95.7957 99.3359 94.9662 99.3359C94.1368 99.3359 93.4644 100.009 93.4644 100.84C93.4644 101.67 94.1368 102.344 94.9662 102.344Z" fill="#0082F4"/>
<path d="M86.039 54.7612C85.0532 54.7618 84.0827 55.0054 83.2134 55.4705C82.3442 55.9356 81.603 56.6078 81.0556 57.4276C80.5081 58.2475 80.1712 59.1897 80.0747 60.1708C79.9782 61.1519 80.1251 62.1417 80.5024 63.0525C80.8796 63.9633 81.4756 64.767 82.2376 65.3925C82.9996 66.018 83.904 66.446 84.8709 66.6386C85.8377 66.8312 86.8372 66.7825 87.7807 66.4967C88.7242 66.2109 89.5827 65.6969 90.2802 65.0002C91.119 64.1614 91.6903 63.0927 91.9217 61.9292C92.1531 60.7657 92.0343 59.5597 91.5803 58.4637C91.1264 57.3678 90.3576 56.431 89.3712 55.772C88.3848 55.1129 87.2252 54.7612 86.0389 54.7612H86.039ZM89.1201 63.8402C88.5107 64.4496 87.7343 64.8646 86.8891 65.0328C86.0438 65.2009 85.1677 65.1146 84.3715 64.7849C83.5752 64.4551 82.8947 63.8966 82.4159 63.18C81.9371 62.4634 81.6815 61.621 81.6815 60.7591C81.6815 59.8973 81.9371 59.0549 82.4159 58.3383C82.8947 57.6217 83.5752 57.0632 84.3715 56.7334C85.1677 56.4037 86.0438 56.3174 86.8891 56.4855C87.7343 56.6537 88.5107 57.0687 89.1201 57.6781C89.936 58.4959 90.3943 59.6039 90.3943 60.7591C90.3943 61.9144 89.936 63.0224 89.1201 63.8402Z" fill="#0082F4"/>
</svg>
